Coordinates
version=1
nRows=24
nColumns=24
inDegrees=yes

Units are S.I. units (second, meters, Newtons, ...)
Angles are in degrees.

endheader
time	pelvis_tilt	pelvis_list	pelvis_rotation	pelvis_tx	pelvis_ty	pelvis_tz	hip_flexion_r	hip_adduction_r	hip_rotation_r	knee_angle_r	ankle_angle_r	subtalar_angle_r	mtp_angle_r	hip_flexion_l	hip_adduction_l	hip_rotation_l	knee_angle_l	ankle_angle_l	subtalar_angle_l	mtp_angle_l	lumbar_extension	lumbar_bending	lumbar_rotation
      1.52033333	    -11.25397664	      3.96764631	     -0.25235449	      0.44751718	      0.89468385	      0.29076841	     25.74849820	     -7.42935987	     -9.07499244	    -67.32180121	      4.53797610	      5.06688809	     10.11862556	     22.66270778	      7.47101166	     -1.40168958	    -22.56742769	      9.72854541	     -4.26132750	      5.97092028	      7.26978224	     -7.07517917	      3.77691839
      1.52450000	    -11.13622278	      3.80428633	     -0.07325901	      0.45247744	      0.89605729	      0.29053781	     26.17860058	     -7.29016236	     -9.19477201	    -66.74794663	      4.94462405	      4.88553530	     10.04112536	     21.92155084	      7.39821158	     -1.07789789	    -22.03969014	      9.68422237	     -4.31479376	      5.95557342	      7.12225964	     -6.91647442	      3.40420632
      1.52866667	    -11.01713817	      3.63726315	      0.11110310	      0.45742205	      0.89740564	      0.29029503	     26.59390561	     -7.15008650	     -9.31972949	    -66.12333117	      5.31722747	      4.69201857	      9.95818013	     21.18094628	      7.31909022	     -0.74173245	    -21.50963096	      9.63065885	     -4.38196794	      5.93747580	      6.97236738	     -6.75304000	      3.02381822
      1.53283333	    -10.90751200	      3.48192520	      0.31139234	      0.46233452	      0.89870253	      0.29002629	     27.00993581	     -7.03198278	     -9.45363715	    -65.46044577	      5.68618577	      4.49247163	      9.81427341	     20.45119058	      7.25585776	     -0.37107728	    -20.96864117	      9.52674657	     -4.50954740	      5.90408505	      6.83401753	     -6.61435914	      2.56044338
      1.53700000	    -10.77865716	      3.30681526	      0.51054544	      0.46724758	      0.90000407	      0.28976442	     27.38487669	     -6.89134906	     -9.59467793	    -64.73376511	      5.99869380	      4.26784653	      9.66355404	     19.70757628	      7.16060560	     -0.01714060	    -20.44070363	      9.45839499	     -4.58884998	      5.86980467	      6.66986559	     -6.43835845	      2.16157310
      1.54116667	    -10.63737569	      3.12404889	      0.70576733	      0.47216025	      0.90129455	      0.28951079	     27.73058886	     -6.74132992	     -9.73515901	    -63.95228653	      6.25077359	      4.02722370	      9.55869110	     18.95535161	      7.04661669	      0.31865981	    -19.92014170	      9.42133092	     -4.64255338	      5.84589828	      6.49489853	     -6.24104307	      1.82787415
      1.54533333	    -10.50487623	      2.94166395	      0.91642830	      0.47704250	      0.90253217	      0.28923883	     28.07174761	     -6.59834823	     -9.88781175	    -63.12599228	      6.49006315	      3.76419451	      9.44829550	     18.21798372	      6.93211005	      0.67508889	    -19.39915301	      9.34949039	     -4.72508653	      5.82093397	      6.32717447	     -6.05087838	      1.43008800
      1.54950000	    -10.38984269	      2.77592501	      1.13572789	      0.48189552	      0.90368781	      0.28895306	     28.42469185	     -6.47690950	    -10.03396854	    -62.26965711	      6.72185855	      3.49006488	      9.28689521	     17.50276898	      6.83485375	      1.06299475	    -18.87513015	      9.23605343	     -4.84717187	      5.78489059	      6.17111316	     -5.89308325	      0.96424790
      1.55366667	    -10.25267290	      2.58727618	      1.34765859	      0.48677460	      0.90485066	      0.28868861	     28.72876789	     -6.32855384	    -10.19079275	    -61.34493674	      6.87338424	      3.19289803	      9.17820770	     16.77544186	      6.69401111	      1.38417831	    -18.37675232	      9.19362668	     -4.89125608	      5.76363006	      6.01123173	     -5.68738341	      0.64027909
      1.55783333	    -10.12885611	      2.41424625	      1.56368695	      0.49162122	      0.90594009	      0.28842430	     29.04043373	     -6.19700235	    -10.33669950	    -60.38880257	      7.00580615	      2.87075041	      9.05162932	     16.06280164	      6.56698390	      1.73212103	    -17.86818959	      9.11665266	     -4.97003959	      5.73997434	      5.85803670	     -5.50928779	      0.22399332
      1.56200000	    -10.01920893	      2.22793204	      1.79759366	      0.49643963	      0.90696383	      0.28816719	     29.34540809	     -6.05487476	    -10.50021472	    -59.37969003	      7.13977830	      2.54270555	      8.96044675	     15.39396104	      6.41492695	      2.05180314	    -17.40906012	      9.01554530	     -4.98276939	      5.72485021	      5.71792560	     -5.33527475	     -0.09186800
      1.56616667	     -9.92110065	      2.08971440	      2.02081872	      0.50126688	      0.90790083	      0.28787798	     29.66798486	     -5.96951781	    -10.63867053	    -58.36829762	      7.21638317	      2.18782761	      8.71740730	     14.70282224	      6.32081020	      2.43533420	    -16.87592499	      8.90722653	     -5.14976131	      5.68824352	      5.59765461	     -5.18756822	     -0.68312233
      1.57033333	     -9.80507950	      1.90824974	      2.24087797	      0.50609379	      0.90883963	      0.28764744	     29.93739732	     -5.82508550	    -10.78304017	    -57.27280468	      7.25360706	      1.82680662	      8.62277778	     14.03440218	      6.15173790	      2.70784948	    -16.42674363	      8.84898945	     -5.11332944	      5.67725700	      5.45407324	     -4.99726016	     -0.91452935
      1.57450000	     -9.69865435	      1.75125695	      2.45928529	      0.51090589	      0.90970413	      0.28741753	     30.21153879	     -5.70506570	    -10.91196737	    -56.15323407	      7.24572761	      1.41808578	      8.51255182	     13.36817861	      6.00602778	      2.99605398	    -15.95385765	      8.78374856	     -5.12439286	      5.66604016	      5.32449482	     -4.83688819	     -1.28826763
      1.57866667	     -9.60218089	      1.60595307	      2.67577470	      0.51570661	      0.91049565	      0.28720091	     30.48592123	     -5.59584816	    -11.03030595	    -55.00462026	      7.21541808	      1.00584563	      8.39067506	     12.71579037	      5.86614325	      3.28073565	    -15.48321870	      8.71226248	     -5.14802860	      5.65625428	      5.20597529	     -4.68284456	     -1.68755847
      1.58283333	     -9.52033449	      1.48947801	      2.87947586	      0.52051594	      0.91119663	      0.28699473	     30.77138148	     -5.51149250	    -11.11968669	    -53.83710210	      7.15483492	      0.58011671	      8.20276693	     12.06778165	      5.75203866	      3.56892663	    -14.99208516	      8.66764620	     -5.20022778	      5.64550721	      5.10794230	     -4.55935383	     -2.16800942
      1.58700000	     -9.44316137	      1.34853037	      3.10350441	      0.52531939	      0.91185479	      0.28679224	     31.02997695	     -5.40950912	    -11.23929729	    -52.61050511	      7.11085004	      0.18959191	      8.08579355	     11.45677182	      5.59906196	      3.80666557	    -14.55715211	      8.56577749	     -5.14695448	      5.64100953	      5.01411811	     -4.41878926	     -2.45228363
      1.59116667	     -9.37105933	      1.23141597	      3.31137510	      0.53012587	      0.91244000	      0.28661307	     31.29048126	     -5.32121319	    -11.32465350	    -51.36704048	      7.02100935	     -0.24268932	      7.96895795	     10.83597665	      5.46502465	      4.04356850	    -14.09110963	      8.49553027	     -5.09766541	      5.63936124	      4.92290564	     -4.27751336	     -2.79399639
      1.59533333	     -9.30010980	      1.14234456	      3.50250779	      0.53493004	      0.91295529	      0.28647862	     31.54501204	     -5.24745295	    -11.36915949	    -50.10042571	      6.88497752	     -0.69141632	      7.77890666	     10.21907015	      5.35478778	      4.26802999	    -13.63844439	      8.48204904	     -5.11747616	      5.64092808	      4.84969626	     -4.21463729	     -3.25290663
      1.59950000	     -9.24172870	      1.03575849	      3.71525982	      0.53973932	      0.91341889	      0.28632761	     31.78184502	     -5.16708820	    -11.44170996	    -48.78303358	      6.78829013	     -1.06810768	      7.65410978	      9.63551072	      5.21765511	      4.46758162	    -13.21649702	      8.37642519	     -5.03221440	      5.64378915	      4.78023813	     -4.11020566	     -3.53185567
      1.60366667	     -9.17761905	      0.96623415	      3.89694171	      0.54455912	      0.91380760	      0.28622527	     32.01670937	     -5.10597020	    -11.46074477	    -47.46603538	      6.63428692	     -1.50456018	      7.48011794	      9.02388345	      5.11340906	      4.65792156	    -12.75964309	      8.36437721	     -4.99824193	      5.65317444	      4.70994180	     -4.04880340	     -3.92224648
      1.60783333	     -9.13303189	      0.88697380	      4.09575368	      0.54938077	      0.91412826	      0.28611334	     32.24431102	     -5.04367575	    -11.49412795	    -46.10363806	      6.51793047	     -1.85511080	      7.35001154	      8.45289959	      4.99391225	      4.83458602	    -12.33695340	      8.26499180	     -4.90105165	      5.66175945	      4.65503752	     -3.97604497	     -4.20490181
      1.61200000	     -9.08184035	      0.83211170	      4.27541691	      0.55421404	      0.91438951	      0.28604526	     32.45901746	     -4.99162261	    -11.49096628	    -44.73083841	      6.37472361	     -2.22335929	      7.21437534	      7.86500969	      4.89312319	      4.99838894	    -11.90093859	      8.21668099	     -4.82094400	      5.67423259	      4.59965521	     -3.92845161	     -4.51986584
      1.61616667	     -9.03758064	      0.79064782	      4.45106758	      0.55904649	      0.91457934	      0.28599223	     32.66923847	     -4.95086901	    -11.47035624	    -43.34080752	      6.23272307	     -2.55398490	      7.07343037	      7.28737901	      4.80282923	      5.15113048	    -11.47292516	      8.17316864	     -4.74094381	      5.69001065	      4.55201155	     -3.90065762	     -4.83332123
